<svg xmlns="http://www.w3.org/2000/svg" version="1.1" xmlns:xlink="http://www.w3.org/1999/xlink" xmlns:svgjs="http://svgjs.com/svgjs" width="1440" height="560" preserveAspectRatio="none" viewBox="0 0 1440 560"><g mask="url(&quot;#SvgjsMask1057&quot;)" fill="none"><path d="M963.2861499511719 247.01603054325906L872.5524979299332 208.50188027751756 834.0383476641916 299.23553229875625 924.7719996854304 337.74968256449773z" fill="rgba(255, 114, 0, 0.68)" class="triangle-float2"></path><path d="M156.56 82.3 a133.24 133.24 0 1 0 266.48 0 a133.24 133.24 0 1 0 -266.48 0z" fill="rgba(255, 114, 0, 0.68)" class="triangle-float2"></path><path d="M530.1398573644159 383.3084477140938L635.0423967526377 401.8055957530697 653.5395447916137 296.9030563648479 548.6370054033919 278.4059083258719z" fill="rgba(255, 114, 0, 0.68)" class="triangle-float1"></path><path d="M685.7782007543868 165.10298289314062L796.3168398707929 153.48490376150218 784.6987607391545 42.94626464509602 674.1601216227484 54.564343776734475z" fill="rgba(255, 114, 0, 0.68)" class="triangle-float2"></path><path d="M253.15920886304008 255.77649200863146L198.44086076663322 177.63059224252692 120.29496100052867 232.34894033893374 175.01330909693553 310.4948401050383z" fill="rgba(255, 114, 0, 0.68)" class="triangle-float2"></path><path d="M342.0465689538102 484.4341334328734L456.1521011790233 423.7631457439748 395.4811134901247 309.6576135187617 281.3755812649116 370.3286012076603z" fill="rgba(255, 114, 0, 0.68)" class="triangle-float1"></path><path d="M139.831,645.136C188.584,647.589,240.823,632.672,264.953,590.238C288.885,548.152,271.75,497.74,247.465,455.856C223.28,414.144,188.029,375.758,139.831,374.441C89.753,373.073,44.421,405.134,21.502,449.681C0.31,490.871,10.775,539.032,34.765,578.658C57.769,616.656,95.468,642.904,139.831,645.136" fill="rgba(255, 114, 0, 0.68)" class="triangle-float3"></path><path d="M1160.4541055730554 474.68344298637766L1253.7132599309791 492.81118624039306 1271.8410031849946 399.5520318824692 1178.5818488270706 381.42428862845384z" fill="rgba(255, 114, 0, 0.68)" class="triangle-float3"></path><path d="M544.929,630.679C578.14,633.084,609.104,610.883,623.784,580.996C637.065,553.959,625.438,523.77,610.209,497.78C595.207,472.178,574.548,448.231,544.929,446.426C512.416,444.445,478.639,459.666,464.247,488.887C450.951,515.882,468.766,544.696,483.648,570.85C498.781,597.444,514.411,628.469,544.929,630.679" fill="rgba(255, 114, 0, 0.68)" class="triangle-float3"></path><path d="M237.58198915858839 320.79702322705896L148.2317947734618 282.8701158871399 110.30488743354275 372.2203102722665 199.65508181866932 410.14721761218556z" fill="rgba(255, 114, 0, 0.68)" class="triangle-float2"></path><path d="M403.56640715581995 145.15356767480884L565.2614414598338 173.6647648691872 593.7726386542122 11.969730565173364 432.0776043501983-16.54146662920502z" fill="rgba(255, 114, 0, 0.68)" class="triangle-float2"></path><path d="M1248.59 496.89 a122 122 0 1 0 244 0 a122 122 0 1 0 -244 0z" fill="rgba(255, 114, 0, 0.68)" class="triangle-float1"></path><path d="M266.72851733412233 258.12747890664275L394.7544704733062 154.45410621995956 291.081097786623 26.4281530807757 163.05514464743914 130.1015257674589z" fill="rgba(255, 114, 0, 0.68)" class="triangle-float3"></path><path d="M1219.0214320760394 97.52127424642148L1131.8329481824308 125.85052994814043 1160.16220388415 213.039013841749 1247.3506877777584 184.7097581400301z" fill="rgba(255, 114, 0, 0.68)" class="triangle-float2"></path><path d="M1155.24 440.35 a124.52 124.52 0 1 0 249.04 0 a124.52 124.52 0 1 0 -249.04 0z" fill="rgba(255, 114, 0, 0.68)" class="triangle-float3"></path><path d="M328.607,532.984C345.52,533.119,362.013,524.958,370.032,510.066C377.706,495.815,373.756,478.762,365.205,465.019C357.191,452.14,343.769,443.964,328.607,443.492C312.528,442.992,296.229,448.886,287.839,462.612C279.117,476.879,279.926,494.947,288.308,509.416C296.669,523.848,311.929,532.851,328.607,532.984" fill="rgba(255, 114, 0, 0.68)" class="triangle-float3"></path></g><defs><mask id="SvgjsMask1057"><rect width="1440" height="560" fill="#ffffff"></rect></mask><style>
            @keyframes float1 {
                0%{transform: translate(0, 0)}
                50%{transform: translate(-10px, 0)}
                100%{transform: translate(0, 0)}
            }

            .triangle-float1 {
                animation: float1 5s infinite;
            }

            @keyframes float2 {
                0%{transform: translate(0, 0)}
                50%{transform: translate(-5px, -5px)}
                100%{transform: translate(0, 0)}
            }

            .triangle-float2 {
                animation: float2 4s infinite;
            }

            @keyframes float3 {
                0%{transform: translate(0, 0)}
                50%{transform: translate(0, -10px)}
                100%{transform: translate(0, 0)}
            }

            .triangle-float3 {
                animation: float3 6s infinite;
            }
        </style></defs></svg>